REM DIRINDEX 1\5,1\2\6,1\2\7,1\3\8,1\3\9,1\4\10,1\4\11,1\4\12
REM DIRNAME folder01,folder02,folder03,folder04,folder05,folder06,folder07,folder08,folder09,folder10,folder11,folder12
TITLE ""
FILE "EJ_DB3000_5th_5C_17.mp3" MP3
  TRACK 01 AUDIO
    TITLE "0:"
    INDEX 01 00:00:00
  TRACK 02 AUDIO
    TITLE "9:cjc026_06023"
    INDEX 01 00:00:05
  TRACK 03 AUDIO
    TITLE "0:"
    INDEX 01 00:01:07
  TRACK 04 AUDIO
    TITLE "8:cjc026_06024"
    INDEX 01 00:01:34
  TRACK 05 AUDIO
    TITLE "0:"
    INDEX 01 00:02:18
  TRACK 06 AUDIO
    TITLE "9:cjc026_06025"
    INDEX 01 00:02:43
  TRACK 07 AUDIO
    TITLE "0:"
    INDEX 01 00:03:39
  TRACK 08 AUDIO
    TITLE "8:cjc026_06026"
    INDEX 01 00:03:64
  TRACK 09 AUDIO
    TITLE "0:"
    INDEX 01 00:04:56
  TRACK 10 AUDIO
    TITLE "9:cjc026_06027"
    INDEX 01 00:05:07
  TRACK 11 AUDIO
    TITLE "0:"
    INDEX 01 00:06:04
  TRACK 12 AUDIO
    TITLE "8:cjc026_06028"
    INDEX 01 00:06:33
  TRACK 13 AUDIO
    TITLE "0:"
    INDEX 01 00:07:27
  TRACK 14 AUDIO
    TITLE "9:cjc026_06029"
    INDEX 01 00:07:54
  TRACK 15 AUDIO
    TITLE "0:"
    INDEX 01 00:08:56
  TRACK 16 AUDIO
    TITLE "8:cjc026_06030"
    INDEX 01 00:09:06
  TRACK 17 AUDIO
    TITLE "0:"
    INDEX 01 00:10:02
  TRACK 18 AUDIO
    TITLE "9:cjc026_06031"
    INDEX 01 00:10:27
  TRACK 19 AUDIO
    TITLE "0:"
    INDEX 01 00:11:31
  TRACK 20 AUDIO
    TITLE "8:cjc026_06032"
    INDEX 01 00:11:56
  TRACK 21 AUDIO
    TITLE "0:"
    INDEX 01 00:12:58
  TRACK 22 AUDIO
    TITLE "9:cjc026_06033"
    INDEX 01 00:13:10
  TRACK 23 AUDIO
    TITLE "0:"
    INDEX 01 00:14:02
  TRACK 24 AUDIO
    TITLE "8:cjc026_06034"
    INDEX 01 00:14:27
  TRACK 25 AUDIO
    TITLE "0:"
    INDEX 01 00:15:23
  TRACK 26 AUDIO
    TITLE "9:cjc026_06035"
    INDEX 01 00:15:48
  TRACK 27 AUDIO
    TITLE "0:"
    INDEX 01 00:16:48
  TRACK 28 AUDIO
    TITLE "8:cjc026_06036"
    INDEX 01 00:16:71
  TRACK 29 AUDIO
    TITLE "0:"
    INDEX 01 00:18:21
  TRACK 30 AUDIO
    TITLE "9:cjc026_06037"
    INDEX 01 00:18:46
  TRACK 31 AUDIO
    TITLE "0:"
    INDEX 01 00:19:50
  TRACK 32 AUDIO
    TITLE "8:cjc026_06038"
    INDEX 01 00:20:02
  TRACK 33 AUDIO
    TITLE "0:"
    INDEX 01 00:21:06
  TRACK 34 AUDIO
    TITLE "9:cjc026_06039"
    INDEX 01 00:21:33
  TRACK 35 AUDIO
    TITLE "0:"
    INDEX 01 00:22:44
  TRACK 36 AUDIO
    TITLE "8:cjc026_06040"
    INDEX 01 00:22:72
  TRACK 37 AUDIO
    TITLE "0:"
    INDEX 01 00:24:06
  TRACK 38 AUDIO
    TITLE "9:cjc026_06041"
    INDEX 01 00:24:33
  TRACK 39 AUDIO
    TITLE "0:"
    INDEX 01 00:25:21
  TRACK 40 AUDIO
    TITLE "8:cjc026_06042"
    INDEX 01 00:25:48
  TRACK 41 AUDIO
    TITLE "0:"
    INDEX 01 00:26:46
  TRACK 42 AUDIO
    TITLE "9:cjc026_06043"
    INDEX 01 00:26:73
  TRACK 43 AUDIO
    TITLE "0:"
    INDEX 01 00:27:57
  TRACK 44 AUDIO
    TITLE "8:cjc026_06044"
    INDEX 01 00:28:10
  TRACK 45 AUDIO
    TITLE "0:"
    INDEX 01 00:28:70
  TRACK 46 AUDIO
    TITLE "9:cjc026_06045"
    INDEX 01 00:29:23
  TRACK 47 AUDIO
    TITLE "0:"
    INDEX 01 00:30:18
  TRACK 48 AUDIO
    TITLE "8:cjc026_06046"
    INDEX 01 00:30:46
  TRACK 49 AUDIO
    TITLE "0:"
    INDEX 01 00:31:43
  TRACK 50 AUDIO
    TITLE "9:cjc026_06047"
    INDEX 01 00:31:71
  TRACK 51 AUDIO
    TITLE "0:"
    INDEX 01 00:32:64
  TRACK 52 AUDIO
    TITLE "8:cjc026_06048"
    INDEX 01 00:33:17
  TRACK 53 AUDIO
    TITLE "0:"
    INDEX 01 00:34:08
  TRACK 54 AUDIO
    TITLE "9:cjc026_06049"
    INDEX 01 00:34:34
  TRACK 55 AUDIO
    TITLE "0:"
    INDEX 01 00:35:43
  TRACK 56 AUDIO
    TITLE "8:cjc026_06050"
    INDEX 01 00:35:68
  TRACK 57 AUDIO
    TITLE "0:"
    INDEX 01 00:37:46
  TRACK 58 AUDIO
    TITLE "9:cjc026_06051"
    INDEX 01 00:37:69
  TRACK 59 AUDIO
    TITLE "0:"
    INDEX 01 00:39:07
  TRACK 60 AUDIO
    TITLE "8:cjc026_06052"
    INDEX 01 00:39:33
  TRACK 61 AUDIO
    TITLE "0:"
    INDEX 01 00:40:36
